<svg width="121" height="102" viewBox="0 0 121 102" fill="none" xmlns="http://www.w3.org/2000/svg">
<path d="M48.3333 101.019H36.25V82.2687H48.3333V101.019ZM33.7669 12.5437L0 29.1437L24.1667 48.2875L33.7669 12.5437Z" fill="#FBC02D"/>
<path d="M91.1143 66.3875L120.833 94.7688H96.6666L81.1032 78.6688C73.817 84.8188 64.5128 88.5188 54.3749 88.5188C31.0178 88.5188 12.0833 68.9313 12.0833 44.7688C12.0833 24.95 24.8251 6.1375 42.2916 0V19.7688L91.1143 66.3875Z" fill="#BF360C"/>
<path opacity="0.3" d="M88.5951 63.9875C83.9249 67.0438 78.433 68.8813 72.5001 68.8813C55.813 68.8813 42.2917 54.8938 42.2917 37.6313V19.7688L88.5951 63.9875Z" fill="black"/>
<path opacity="0.5" d="M36.2499 35.3938C36.2499 44.025 29.4893 51.0188 21.1458 51.0188C17.8349 51.0188 14.796 49.8875 12.3068 48.0188C12.2283 46.9375 12.0833 45.875 12.0833 44.7688C12.0833 35.9313 14.657 27.1563 19.0372 19.7813C19.726 19.6875 20.4328 19.7688 21.1458 19.7688C29.4893 19.7688 36.2499 26.7625 36.2499 35.3938Z" fill="black"/>
</svg>
