<svg width="95" height="109" viewBox="0 0 95 109" fill="none" xmlns="http://www.w3.org/2000/svg">
<path d="M95 21.8V32.7C89.1786 32.7 84.4444 37.5886 84.4444 43.6V87.2C84.4444 99.2227 74.9761 109 63.3333 109H15.8333V43.6V38.15H5.27778L0 27.25L8.835 15.2382L8.84556 15.2655C10.6822 13.2271 13.0889 11.7502 15.8333 11.1725V0C15.8333 0 36.9444 5.45 36.9444 21.8C36.9444 25.506 36.9919 36.7711 37.0236 43.6H42.2222C53.8808 43.6 63.3333 53.3609 63.3333 65.4V98.1C69.1547 98.1 73.8889 93.2113 73.8889 87.2V43.6C73.8889 31.5773 83.3572 21.8 95 21.8Z" fill="#454545"/>
<path opacity="0.3" d="M73.8889 43.6V87.2C73.8889 93.195 69.1389 98.1 63.3334 98.1V109C63.4336 109 63.65 109 63.8611 108.946C64.7056 108.891 66.347 108.619 68.5636 108.292C77.6889 105.894 84.4445 97.3915 84.4445 87.2V43.6C84.4445 37.605 89.1945 32.7 95 32.7V21.8C83.3361 21.8 73.8889 31.5555 73.8889 43.6ZM26.3889 109H36.9445C36.9445 103.005 41.6945 98.1 47.5 98.1V87.2C35.8361 87.2 26.3889 96.9555 26.3889 109Z" fill="white"/>
</svg>
