<svg width="112" height="94" viewBox="0 0 112 94" fill="none" xmlns="http://www.w3.org/2000/svg">
<path d="M50.0771 64.5946C48.7497 65.1918 47.3607 65.6728 45.8933 65.9659L56.0812 94H44.1794L33.3866 64.3015C28.0266 61.6916 24.0164 56.7981 22.7954 50.854L16.8025 27.6471H0V11.0588H5.88088C7.18028 4.74976 12.8259 0 19.6029 0C24.1172 0 28.0882 2.14541 30.6478 5.41882L45.0028 27.9456C45.7309 28.0562 90.1903 39.1316 90.1903 39.1316C90.1903 39.1316 92.2738 39.8173 93.2372 40.3149L103.448 30.2459L109.39 36.1126L99.1853 46.1872C100.193 48.0893 100.815 50.2292 100.815 52.5294V73.5522L112 94H99.2693L78.1429 55.3826L50.0771 64.5946Z" fill="#6D4C41"/>
<path opacity="0.3" d="M16.8025 27.6471H0V11.0588H5.88088L16.8025 27.6471Z" fill="black"/>
<path opacity="0.4" d="M33.3866 64.3016C28.0266 61.6917 24.0164 56.7981 22.7954 50.854L16.8025 27.6471C16.8025 27.6471 30.6478 27.6471 30.6478 5.41886L30.7486 5.35803L45.0027 27.9457C45.7364 28.0563 33.3866 64.3016 33.3866 64.3016ZM36.1422 71.8824L44.1794 94H56.0812L48.044 71.8824H36.1422ZM93.2203 82.9412L99.2693 94H112L105.951 82.9412H93.2203Z" fill="white"/>
</svg>
