<svg width="107" height="107" viewBox="0 0 107 107" fill="none" xmlns="http://www.w3.org/2000/svg">
<path d="M107 32.1V74.9C107 76.9277 105.855 78.7787 104.041 79.6882C103.287 80.0628 102.463 80.25 101.65 80.25C100.516 80.25 99.3816 79.8915 98.44 79.18L80.6994 65.8745L90.95 107L28.0875 85.9852C9.69955 80.4158 0 53.5 0 53.5C0 53.5 9.69955 27.392 28.0875 21.202L91.0516 0L80.7422 41.0933L98.44 27.82C100.061 26.6055 102.228 26.4076 104.041 27.3118C105.855 28.2213 107 30.0723 107 32.1Z" fill="#FF8F00"/>
<path opacity="0.4" d="M80.7316 41.088L91.0571 0L53.5001 12.626V18.939L75.9166 16.371L66.5541 53.821L75.8577 90.6825L53.5001 88.1145V94.4863L90.9501 107L80.6781 65.8585L80.7316 41.088ZM32.1001 87.312L45.4751 91.806V87.205L32.1001 85.6535V87.312ZM32.1001 21.4L45.4751 19.8485V15.3545L32.1001 19.8485V21.4Z" fill="white"/>
<path opacity="0.3" d="M18.7249 50.825C18.7249 53.7782 16.3281 56.175 13.3749 56.175C10.4217 56.175 8.0249 53.7782 8.0249 50.825C8.0249 47.8718 10.4217 45.475 13.3749 45.475C16.3281 45.475 18.7249 47.8718 18.7249 50.825ZM32.0999 21.4V19.8485L28.0874 21.2021C26.6964 21.6675 25.3643 22.2614 24.0749 22.9355V84.3642C25.3643 85.0062 26.6964 85.5626 28.0874 85.9852L32.0999 87.3281V87.312V85.6535V21.4ZM53.4999 88.1145V18.939V12.6421L45.4749 15.3438V15.3545V19.8485V87.205V91.8007L53.4999 94.481V88.1145ZM80.7314 41.1522L80.6779 65.789L80.6993 65.8746L90.9499 73.5625V33.4375L80.7421 41.0934L80.7314 41.1522Z" fill="black"/>
</svg>
