<svg width="152" height="67" viewBox="0 0 152 67" fill="none" xmlns="http://www.w3.org/2000/svg">
<path d="M0.383789 54.1985V23.8801C0.383789 19.8922 2.45964 18.6358 5.62805 18.6358H19.3396C26.8783 18.6358 32.9419 22.3505 32.9419 31.0909C32.9419 38.2472 27.9708 43.5461 19.285 43.5461H9.34274V54.1985C9.34274 56.8752 7.59465 58.6779 4.86326 58.6779C2.13188 58.6779 0.383789 56.8752 0.383789 54.1985ZM9.34274 25.5189V36.663H17.7008C21.3062 36.663 23.983 34.4779 23.983 31.0909C23.983 27.1577 21.197 25.5189 16.7721 25.5189H9.34274Z" fill="white"/>
<path d="M35.8159 51.3032L47.397 20.657C48.1618 18.6358 49.5821 17.9256 51.7672 17.9256H53.8977C55.919 17.9256 57.7217 18.4172 58.705 21.2033L69.5213 51.3032C69.849 52.1772 70.3953 53.7614 70.3953 54.7447C70.3953 56.9298 68.4833 58.6779 66.189 58.6779C64.2224 58.6779 62.8021 57.9677 62.1465 56.2197L59.8521 49.6643H45.4304L43.0814 56.2197C42.4805 57.9677 41.2241 58.6779 39.0936 58.6779C36.6354 58.6779 34.9419 57.1483 34.9419 54.7447C34.9419 53.7614 35.4882 52.1772 35.8159 51.3032ZM57.8856 43.4368L52.8052 27.6493H52.6959L47.397 43.4368H57.8856Z" fill="white"/>
<path fill-rule="evenodd" clip-rule="evenodd" d="M72.3955 22.4804C72.5036 22.7628 72.5955 23.0723 72.6715 23.4102L77.9704 47.588H78.0796L84.1979 23.1067C84.6896 21.0834 85.5636 20.0212 88.8959 20.0212C92.6652 20.0212 93.43 21.6904 93.9763 23.9666L99.9307 47.588H100.04L105.394 23.4102C105.94 20.9823 107.305 20.0212 109.436 20.0212C111.512 20.0212 113.752 21.2352 113.752 23.7642C113.752 24.5735 113.533 25.3828 113.315 26.1415L105.612 53.8095C104.793 56.6926 103.482 57.7548 100.204 57.7548C96.817 57.7548 95.6151 56.4397 94.8504 53.6577L89.0052 31.4526H88.8959L83.0508 53.6577C82.3406 56.4397 81.0842 57.7548 77.6972 57.7548C77.3468 57.7548 77.0188 57.7427 76.7115 57.7175C77.924 58.3299 79.3147 58.6779 80.7931 58.6779H108.107C112.821 58.6779 116.643 55.1395 116.643 50.7746V23.9033C116.643 19.5384 112.821 16 108.107 16H80.7931C76.6037 16 73.1192 18.7946 72.3955 22.4804Z" fill="white"/>
<circle cx="94.8955" cy="6.5" r="6.5" fill="white"/>
<circle cx="78.8955" cy="6.5" r="6.5" fill="white"/>
<circle cx="109.896" cy="6.5" r="6.5" fill="white"/>
<path d="M133.862 33.276L141.346 34.9695C149.54 36.8268 151.616 41.6887 151.616 46.2774C151.616 53.379 146.263 58.6779 135.446 58.6779C124.084 58.6779 119.003 52.9966 119.003 48.7357C119.003 46.5506 120.588 45.021 122.773 45.021C127.635 45.021 126.378 52.1226 135.446 52.1226C140.09 52.1226 142.657 49.5551 142.657 46.9329C142.657 45.3487 141.892 43.6007 138.833 42.8359L128.727 40.2684C120.588 38.1925 119.113 33.713 119.113 29.5067C119.113 20.7663 127.198 17.4886 134.791 17.4886C141.783 17.4886 150.032 21.4218 150.032 26.6661C150.032 28.9058 148.12 30.2169 145.935 30.2169C141.783 30.2169 142.548 24.3717 134.19 24.3717C130.038 24.3717 127.744 26.2837 127.744 29.015C127.744 31.7464 131.022 32.6205 133.862 33.276Z" fill="white"/>
</svg>
