<svg width="626" height="245" viewBox="0 0 626 245" fill="none" xmlns="http://www.w3.org/2000/svg">
<path d="M551.907 135.688L583.14 142.759C617.337 150.514 626 170.814 626 189.974C626 219.625 603.658 241.75 558.518 241.75C511.098 241.75 489.896 218.028 489.896 200.238C489.896 191.114 496.507 184.727 505.627 184.727C525.917 184.727 520.673 214.379 558.518 214.379C577.896 214.379 588.611 203.659 588.611 192.711C588.611 186.096 585.42 178.797 572.653 175.604L530.476 164.884C496.507 156.216 490.352 137.513 490.352 119.95C490.352 83.4559 524.093 69.7705 555.782 69.7705C584.964 69.7705 619.389 86.1929 619.389 108.089C619.389 117.441 611.409 122.915 602.29 122.915C584.964 122.915 588.155 98.5098 553.274 98.5098C535.948 98.5098 526.373 106.493 526.373 117.897C526.373 129.302 540.052 132.951 551.907 135.688Z" fill="#221F1F"/>
<path fill-rule="evenodd" clip-rule="evenodd" d="M289.596 93.8631C290.047 95.0423 290.431 96.3345 290.748 97.7453L312.862 198.696H313.318L338.852 96.4782C340.904 88.0304 344.551 83.5953 358.458 83.5953C374.189 83.5953 377.38 90.5647 379.66 100.068L404.51 198.696H404.966L427.308 97.7453C429.588 87.608 435.287 83.5953 444.178 83.5953C452.842 83.5953 462.189 88.664 462.189 99.2237C462.189 102.603 461.277 105.982 460.365 109.15L428.22 224.673C424.8 236.711 419.329 241.146 405.65 241.146C391.515 241.146 386.5 235.655 383.308 224.039L358.914 131.325H358.458L334.064 224.039C331.1 235.655 325.857 241.146 311.722 241.146C310.26 241.146 308.891 241.095 307.608 240.99C312.669 243.547 318.472 245 324.642 245H438.632C458.306 245 474.254 230.226 474.254 212.001V99.8044C474.254 81.5796 458.306 66.8054 438.632 66.8054H324.642C307.158 66.8054 292.617 78.4739 289.596 93.8631Z" fill="#221F1F"/>
<path d="M137.85 210.045L186.182 82.0874C189.374 73.6481 195.301 70.683 204.42 70.683H213.312C221.747 70.683 229.27 72.7358 233.374 84.3683L278.514 210.045C279.882 213.695 282.162 220.309 282.162 224.415C282.162 233.539 274.182 240.837 264.607 240.837C256.4 240.837 250.472 237.872 247.737 230.573L238.161 203.203H177.975L168.172 230.573C165.664 237.872 160.42 240.837 151.529 240.837C141.27 240.837 134.203 234.451 134.203 224.415C134.203 220.309 136.482 213.695 137.85 210.045ZM229.954 177.201L208.752 111.283H208.296L186.182 177.201H229.954Z" fill="#221F1F"/>
<path d="M0 222.134V95.5446C0 78.8941 8.66323 73.6481 21.8861 73.6481H79.109C110.57 73.6481 135.876 89.1581 135.876 125.652C135.876 155.532 115.13 177.657 78.881 177.657H37.3887V222.134C37.3887 233.31 30.0933 240.837 18.6943 240.837C7.29535 240.837 0 233.31 0 222.134ZM37.3887 102.387V148.917H72.2696C87.3163 148.917 98.4873 139.794 98.4873 125.652C98.4873 109.23 86.8603 102.387 68.394 102.387H37.3887Z" fill="#221F1F"/>
<ellipse cx="386.033" cy="27.1397" rx="27.1267" ry="27.1397" fill="#221F1F"/>
<ellipse cx="319.26" cy="27.1397" rx="27.1267" ry="27.1397" fill="#221F1F"/>
<ellipse cx="448.634" cy="27.1397" rx="27.1267" ry="27.1397" fill="#221F1F"/>
</svg>
