<svg width="150" height="59" viewBox="0 0 150 59" fill="none" xmlns="http://www.w3.org/2000/svg">
<path d="M132.246 32.4975L139.73 34.191C147.924 36.0483 150 40.9102 150 45.4989C150 52.6005 144.646 57.8994 133.83 57.8994C122.468 57.8994 117.387 52.2181 117.387 47.9572C117.387 45.772 118.971 44.2425 121.157 44.2425C126.018 44.2425 124.762 51.3441 133.83 51.3441C138.474 51.3441 141.041 48.7766 141.041 46.1544C141.041 44.5702 140.276 42.8222 137.217 42.0574L127.111 39.4899C118.971 37.414 117.496 32.9345 117.496 28.7282C117.496 19.9877 125.581 16.7101 133.175 16.7101C140.167 16.7101 148.416 20.6433 148.416 25.8875C148.416 28.1273 146.504 29.4384 144.319 29.4384C140.167 29.4384 140.932 23.5932 132.574 23.5932C128.422 23.5932 126.128 25.5052 126.128 28.2365C126.128 30.9679 129.405 31.842 132.246 32.4975Z" fill="#221F1F"/>
<path fill-rule="evenodd" clip-rule="evenodd" d="M69.3921 22.4804C69.5001 22.7628 69.592 23.0723 69.6681 23.4102L74.967 47.588H75.0762L81.1945 23.1067C81.6862 21.0834 82.5602 20.0212 85.8925 20.0212C89.6618 20.0212 90.4266 21.6904 90.9729 23.9666L96.9273 47.588H97.0366L102.39 23.4102C102.936 20.9823 104.302 20.0212 106.433 20.0212C108.508 20.0212 110.748 21.2352 110.748 23.7642C110.748 24.5735 110.53 25.3828 110.311 26.1415L102.609 53.8095C101.789 56.6926 100.478 57.7548 97.2005 57.7548C93.8135 57.7548 92.6117 56.4397 91.8469 53.6577L86.0018 31.4526H85.8925L80.0473 53.6577C79.3372 56.4397 78.0807 57.7548 74.6938 57.7548C74.3434 57.7548 74.0154 57.7427 73.7081 57.7175C74.9206 58.3299 76.3113 58.6779 77.7897 58.6779H105.104C109.818 58.6779 113.639 55.1395 113.639 50.7746V23.9033C113.639 19.5384 109.818 16 105.104 16H77.7897C73.6003 16 70.1158 18.7946 69.3921 22.4804Z" fill="#221F1F"/>
<path d="M33.0313 50.3063L44.6124 19.6601C45.3771 17.6389 46.7975 16.9287 48.9826 16.9287H51.1131C53.1343 16.9287 54.937 17.4204 55.9203 20.2064L66.7366 50.3063C67.0644 51.1803 67.6106 52.7645 67.6106 53.7478C67.6106 55.9329 65.6987 57.681 63.4043 57.681C61.4377 57.681 60.0174 56.9709 59.3619 55.2228L57.0675 48.6674H42.6458L40.2968 55.2228C39.6959 56.9709 38.4394 57.681 36.3089 57.681C33.8507 57.681 32.1572 56.1514 32.1572 53.7478C32.1572 52.7645 32.7035 51.1803 33.0313 50.3063ZM55.1009 42.4399L50.0205 26.6525H49.9112L44.6124 42.4399H55.1009Z" fill="#221F1F"/>
<path d="M0 53.2015V22.8831C0 18.8952 2.07585 17.6388 5.24426 17.6388H18.9558C26.4945 17.6388 32.5581 21.3535 32.5581 30.0939C32.5581 37.2502 27.587 42.549 18.9012 42.549H8.95895V53.2015C8.95895 55.8782 7.21086 57.6809 4.47948 57.6809C1.74809 57.6809 0 55.8782 0 53.2015ZM8.95895 24.5219V35.666H17.317C20.9224 35.666 23.5992 33.4808 23.5992 30.0939C23.5992 26.1607 20.8132 24.5219 16.3883 24.5219H8.95895Z" fill="#221F1F"/>
<circle cx="92.5" cy="6.5" r="6.5" fill="#221F1F"/>
<circle cx="76.5" cy="6.5" r="6.5" fill="#221F1F"/>
<circle cx="107.5" cy="6.5" r="6.5" fill="#221F1F"/>
</svg>
