<svg width="251" height="153" viewBox="0 0 251 153" fill="none" xmlns="http://www.w3.org/2000/svg">
<g clip-path="url(#clip0_1_3)">
<path d="M128.762 123.726L41.0163 146.285C38.0399 147.047 34.8823 146.599 32.2365 145.039C29.5906 143.479 27.6725 140.935 26.9028 137.965L0.367634 35.0792C-0.395218 32.1075 0.0537191 28.955 1.61596 26.3133C3.17819 23.6717 5.72615 21.7566 8.70085 20.9882L90.3343 0.000331879L111.227 9.33876L137.096 109.635C137.859 112.606 137.41 115.759 135.847 118.401C134.285 121.042 131.737 122.958 128.762 123.726Z" fill="#F2F2F2"/>
<path d="M9.5313 24.214C7.41294 24.7612 5.59846 26.1249 4.48593 28.0061C3.37341 29.8872 3.05369 32.1322 3.5969 34.2484L30.1338 137.135C30.6818 139.25 32.0477 141.062 33.9319 142.172C35.8161 143.283 38.0646 143.602 40.1842 143.06L127.93 120.501C130.049 119.954 131.863 118.59 132.976 116.709C134.088 114.828 134.408 112.583 133.865 110.466L108.397 11.7237L90.0347 3.51655L9.5313 24.214Z" fill="white"/>
<path d="M111.004 9.87043L97.4242 13.3619C96.4329 13.6167 95.3807 13.4679 94.4992 12.9483C93.6177 12.4286 92.979 11.5806 92.7238 10.5908L90.1409 0.576834C90.1297 0.533016 90.131 0.486924 90.1448 0.443832C90.1586 0.40074 90.1842 0.362387 90.2188 0.333166C90.2534 0.303946 90.2955 0.285039 90.3404 0.278605C90.3852 0.27217 90.431 0.278466 90.4724 0.29678L111.042 9.41706C111.088 9.43739 111.126 9.47142 111.152 9.51445C111.177 9.55747 111.189 9.60735 111.184 9.65717C111.18 9.707 111.161 9.75429 111.128 9.7925C111.096 9.83071 111.053 9.85795 111.004 9.87043Z" fill="#F2F2F2"/>
<path d="M103.86 97.7323L63.9104 108.004C63.4158 108.128 62.8921 108.052 62.4537 107.792C62.0153 107.532 61.6978 107.109 61.5707 106.616C61.4435 106.123 61.517 105.6 61.775 105.16C62.0331 104.721 62.4548 104.402 62.9479 104.272L102.897 94.0003C103.143 93.9356 103.4 93.92 103.652 93.9546C103.904 93.9891 104.146 94.0731 104.366 94.2016C104.585 94.3301 104.777 94.5006 104.93 94.7034C105.083 94.9062 105.195 95.1371 105.258 95.3831C105.322 95.629 105.336 95.8851 105.3 96.1365C105.264 96.3879 105.178 96.6297 105.048 96.848C104.918 97.0663 104.747 97.2568 104.543 97.4086C104.339 97.5603 104.107 97.6704 103.86 97.7323Z" fill="#CCCCCC"/>
<path d="M113.194 102.048L65.5344 114.301C65.2884 114.366 65.0321 114.381 64.7801 114.347C64.5281 114.312 64.2854 114.228 64.066 114.1C63.8466 113.971 63.6548 113.801 63.5017 113.598C63.3485 113.395 63.237 113.164 63.1736 112.918C63.1102 112.672 63.0961 112.416 63.1321 112.165C63.1681 111.914 63.2535 111.672 63.3835 111.453C63.5134 111.235 63.6853 111.045 63.8893 110.893C64.0932 110.741 64.3252 110.631 64.5719 110.569L112.231 98.3158C112.726 98.1916 113.249 98.2679 113.688 98.5281C114.126 98.7882 114.444 99.211 114.571 99.704C114.698 100.197 114.624 100.72 114.366 101.16C114.108 101.599 113.687 101.918 113.194 102.048Z" fill="#CCCCCC"/>
<path d="M47.6052 120.374C51.3726 120.374 54.4267 117.325 54.4267 113.563C54.4267 109.802 51.3726 106.753 47.6052 106.753C43.8378 106.753 40.7837 109.802 40.7837 113.563C40.7837 117.325 43.8378 120.374 47.6052 120.374Z" fill="#B4B4B4"/>
<path d="M99.6119 79.909L46.5546 93.5449C45.0212 93.9372 43.3946 93.7061 42.0316 92.9025C40.6686 92.0988 39.6806 90.7882 39.2844 89.2581L28.1659 46.133C27.7734 44.6023 28.005 42.9786 28.8099 41.6181C29.6148 40.2577 30.9273 39.2714 32.4595 38.8758L85.5166 25.2399C87.0499 24.8476 88.6766 25.0786 90.0395 25.8823C91.4025 26.6859 92.3905 27.9966 92.7868 29.5266L103.906 72.6517C104.298 74.1825 104.066 75.8061 103.262 77.1666C102.457 78.5271 101.144 79.5133 99.6119 79.909Z" fill="white"/>
<path d="M99.6119 79.909L46.5546 93.5449C45.0212 93.9372 43.3946 93.7061 42.0316 92.9025C40.6686 92.0988 39.6806 90.7882 39.2844 89.2581L28.1659 46.133C27.7734 44.6023 28.005 42.9786 28.8099 41.6181C29.6148 40.2577 30.9273 39.2714 32.4595 38.8758L85.5166 25.2399C87.0499 24.8476 88.6766 25.0786 90.0395 25.8823C91.4025 26.6859 92.3905 27.9966 92.7868 29.5266L103.906 72.6517C104.298 74.1825 104.066 75.8061 103.262 77.1666C102.457 78.5271 101.144 79.5133 99.6119 79.909ZM32.6345 39.5537C31.2825 39.9031 30.1246 40.7736 29.4147 41.9743C28.7048 43.175 28.5008 44.6078 28.8476 45.9584L39.9664 89.0835C40.3164 90.4332 41.1883 91.5893 42.3909 92.2981C43.5935 93.0069 45.0285 93.2105 46.3813 92.8643L99.4373 79.2298C100.789 78.8803 101.947 78.0098 102.657 76.8091C103.367 75.6084 103.571 74.1756 103.224 72.825L92.1065 29.7C91.7565 28.3502 90.8845 27.1941 89.6819 26.4853C88.4793 25.7765 87.0443 25.5729 85.6915 25.9191L32.6345 39.5537Z" fill="#E6E6E6"/>
<path d="M82.8248 39.739L56.0483 46.6209C55.8143 46.6861 55.5642 46.6602 55.3485 46.5484C55.1328 46.4366 54.9677 46.2473 54.8865 46.0186C54.8487 45.8991 54.8357 45.7732 54.8482 45.6485C54.8608 45.5238 54.8987 45.4029 54.9596 45.2933C55.0205 45.1838 55.1032 45.0877 55.2025 45.0111C55.3018 44.9344 55.4157 44.8788 55.5373 44.8475L82.7947 37.8422C83.8959 38.3993 83.606 39.5386 82.8252 39.7393L82.8248 39.739Z" fill="#F2F2F2"/>
<path d="M84.033 44.427L57.2565 51.3088C57.0224 51.3741 56.7723 51.3482 56.5566 51.2364C56.3409 51.1246 56.1758 50.9352 56.0946 50.7066C56.0568 50.5871 56.0438 50.4611 56.0564 50.3364C56.069 50.2117 56.1069 50.0909 56.1678 49.9813C56.2287 49.8717 56.3113 49.7757 56.4106 49.699C56.5099 49.6224 56.6238 49.5667 56.7454 49.5355L84.0028 42.5302C85.104 43.0873 84.8141 44.2265 84.0333 44.4273L84.033 44.427Z" fill="#F2F2F2"/>
<path d="M52.1565 55.4678L43.9845 57.5674C43.8523 57.6014 43.7148 57.609 43.5796 57.5899C43.4445 57.5708 43.3145 57.5253 43.1969 57.4561C43.0794 57.3868 42.9767 57.295 42.8948 57.1861C42.8128 57.0772 42.7531 56.9532 42.7191 56.8212L40.2365 47.195C40.2024 47.0631 40.1947 46.9257 40.2139 46.7908C40.233 46.6559 40.2785 46.5261 40.3479 46.4087C40.4173 46.2914 40.5092 46.1889 40.6183 46.107C40.7274 46.0251 40.8516 45.9656 40.9838 45.9316L49.1558 43.8314C49.4227 43.7632 49.7058 43.8034 49.943 43.9433C50.1802 44.0832 50.3522 44.3112 50.4213 44.5775L52.9039 54.206C52.9379 54.338 52.9456 54.4754 52.9265 54.6103C52.9073 54.7452 52.8618 54.875 52.7924 54.9923C52.723 55.1097 52.6311 55.2122 52.522 55.2941C52.4129 55.3759 52.2887 55.4355 52.1565 55.4695V55.4678Z" fill="#B4B4B4"/>
<path d="M86.4315 54.0501L45.5646 64.5529C45.3306 64.6182 45.0804 64.5923 44.8648 64.4805C44.6491 64.3687 44.484 64.1793 44.4027 63.9507C44.3649 63.8312 44.352 63.7052 44.3645 63.5805C44.3771 63.4558 44.415 63.335 44.4759 63.2254C44.5368 63.1158 44.6194 63.0198 44.7188 62.9431C44.8181 62.8665 44.932 62.8108 45.0536 62.7796L86.4013 52.153C87.5025 52.7101 87.2123 53.8494 86.4315 54.0501Z" fill="#F2F2F2"/>
<path d="M87.6416 58.7404L46.7741 69.2436C46.54 69.3088 46.2899 69.2829 46.0742 69.1711C45.8586 69.0593 45.6934 68.87 45.6122 68.6413C45.5744 68.5218 45.5614 68.3958 45.574 68.2711C45.5866 68.1464 45.6245 68.0256 45.6854 67.916C45.7463 67.8065 45.8289 67.7104 45.9282 67.6337C46.0275 67.5571 46.1414 67.5015 46.263 67.4702L87.6108 56.8436C88.712 57.4007 88.4221 58.54 87.6413 58.7408L87.6416 58.7404Z" fill="#F2F2F2"/>
<path d="M88.8494 63.4287L47.9826 73.9315C47.7485 73.9968 47.4984 73.9709 47.2827 73.8591C47.067 73.7473 46.9019 73.5579 46.8207 73.3293C46.7829 73.2097 46.7699 73.0838 46.7825 72.9591C46.795 72.8344 46.8329 72.7136 46.8938 72.604C46.9547 72.4944 47.0374 72.3984 47.1367 72.3217C47.236 72.2451 47.3499 72.1894 47.4715 72.1582L88.8189 61.5316C89.9201 62.0887 89.6302 63.228 88.8494 63.4287Z" fill="#F2F2F2"/>
<path d="M90.0592 68.119L49.192 78.6218C48.958 78.6871 48.7078 78.6612 48.4922 78.5494C48.2765 78.4376 48.1114 78.2482 48.0301 78.0196C47.9923 77.9 47.9793 77.7741 47.9919 77.6494C48.0045 77.5247 48.0424 77.4039 48.1033 77.2943C48.1642 77.1847 48.2468 77.0886 48.3462 77.012C48.4455 76.9354 48.5594 76.8797 48.681 76.8485L90.0287 66.2219C91.1296 66.779 90.84 67.9183 90.0592 68.119Z" fill="#F2F2F2"/>
<path d="M91.2677 72.8069L50.4008 83.3098C50.1668 83.375 49.9166 83.3491 49.701 83.2373C49.4853 83.1255 49.3202 82.9361 49.2389 82.7075C49.2011 82.588 49.1881 82.462 49.2007 82.3373C49.2133 82.2126 49.2512 82.0918 49.3121 81.9822C49.373 81.8726 49.4556 81.7766 49.5549 81.6999C49.6543 81.6233 49.7682 81.5677 49.8897 81.5364L91.2375 70.9098C92.3384 71.4669 92.0485 72.6062 91.2677 72.8069Z" fill="#F2F2F2"/>
<path d="M48.1086 115.951C47.96 115.989 47.803 115.978 47.6612 115.92L47.6525 115.916L45.7942 115.13C45.7081 115.093 45.63 115.04 45.5645 114.973C45.4989 114.907 45.4472 114.828 45.4122 114.741C45.3772 114.654 45.3597 114.562 45.3605 114.468C45.3614 114.375 45.3807 114.283 45.4173 114.197C45.4539 114.111 45.5072 114.033 45.5739 113.967C45.6407 113.902 45.7198 113.85 45.8065 113.815C45.8933 113.78 45.9861 113.763 46.0797 113.764C46.1733 113.765 46.2657 113.784 46.3518 113.82L47.5559 114.332L49.1337 110.626C49.2076 110.452 49.3475 110.315 49.5227 110.245C49.6978 110.174 49.8939 110.176 50.0677 110.25L50.0583 110.274L50.068 110.249C50.2418 110.323 50.3791 110.463 50.4497 110.638C50.5203 110.813 50.5185 111.009 50.4447 111.182L48.5885 115.54C48.5454 115.64 48.4797 115.729 48.3966 115.8C48.3134 115.871 48.215 115.922 48.1089 115.949L48.1086 115.951Z" fill="white"/>
<path d="M214.887 150.794L125.951 133.54C122.936 132.952 120.277 131.193 118.56 128.649C116.842 126.106 116.205 122.985 116.788 119.973L137.101 15.6742C137.691 12.6632 139.453 10.0086 142 8.29272C144.548 6.57689 147.672 5.93997 150.689 6.52169L233.429 22.5737L248.277 39.9677L228.475 141.641C227.886 144.652 226.124 147.307 223.576 149.023C221.029 150.739 217.904 151.376 214.887 150.794Z" fill="#E6E6E6"/>
<path d="M150.052 9.79195C147.904 9.37772 145.679 9.83129 143.865 11.0531C142.051 12.275 140.796 14.1654 140.376 16.3095L120.063 120.608C119.648 122.753 120.102 124.975 121.325 126.786C122.548 128.597 124.441 129.85 126.588 130.269L215.524 147.523C217.672 147.937 219.898 147.483 221.712 146.262C223.526 145.04 224.78 143.149 225.2 141.005L244.695 40.9081L231.647 25.6217L150.052 9.79195Z" fill="white"/>
<path d="M215.783 54.0216L175.288 46.1639C174.786 46.0664 174.343 45.7736 174.057 45.3498C173.771 44.926 173.665 44.406 173.762 43.9041C173.86 43.4023 174.153 42.9597 174.578 42.6738C175.002 42.3879 175.523 42.2821 176.025 42.3796L216.521 50.2374C217.023 50.3349 217.466 50.6278 217.753 51.0516C218.039 51.4754 218.145 51.9954 218.047 52.4972C217.949 52.999 217.656 53.4416 217.232 53.7275C216.807 54.0134 216.287 54.1193 215.784 54.0218L215.783 54.0216Z" fill="#B4B4B4"/>
<path d="M222.355 61.9222L174.046 52.5479C173.543 52.4504 173.1 52.1576 172.814 51.7338C172.528 51.31 172.422 50.79 172.519 50.2881C172.617 49.7863 172.911 49.3437 173.335 49.0578C173.759 48.7719 174.28 48.666 174.782 48.7635L223.092 58.1378C223.594 58.2353 224.038 58.5281 224.324 58.9519C224.61 59.3757 224.716 59.8957 224.618 60.3976C224.52 60.8994 224.227 61.342 223.803 61.6279C223.378 61.9138 222.858 62.0197 222.355 61.9222Z" fill="#B4B4B4"/>
<path d="M210.951 78.845L170.457 70.9876C169.955 70.8901 169.434 70.9959 169.01 71.2818C168.585 71.5677 168.292 72.0102 168.194 72.512C168.097 73.0138 168.202 73.5338 168.489 73.9575C168.775 74.3813 169.218 74.6741 169.72 74.7716L210.214 82.6291C210.713 82.7191 211.228 82.6092 211.647 82.323C212.066 82.0368 212.355 81.5973 212.452 81.0998C212.549 80.6023 212.445 80.0867 212.164 79.6647C211.884 79.2427 211.447 78.9483 210.951 78.845Z" fill="#CCCCCC"/>
<path d="M217.523 86.7463L169.214 77.3722C168.964 77.3202 168.706 77.3184 168.455 77.3668C168.204 77.4153 167.965 77.513 167.752 77.6544C167.539 77.7957 167.357 77.9779 167.215 78.1903C167.073 78.4028 166.975 78.6412 166.926 78.8918C166.877 79.1423 166.879 79.4001 166.931 79.6501C166.982 79.9001 167.083 80.1373 167.228 80.3479C167.372 80.5586 167.557 80.7385 167.771 80.8773C167.986 81.0161 168.226 81.1109 168.477 81.1563L216.786 90.5303C217.036 90.5823 217.294 90.5841 217.545 90.5357C217.796 90.4872 218.035 90.3895 218.248 90.2481C218.461 90.1067 218.643 89.9246 218.785 89.7122C218.927 89.4997 219.025 89.2613 219.074 89.0107C219.122 88.7601 219.121 88.5024 219.069 88.2524C219.017 88.0024 218.916 87.7652 218.772 87.5546C218.628 87.3439 218.443 87.164 218.229 87.0252C218.014 86.8864 217.774 86.7917 217.523 86.7463Z" fill="#CCCCCC"/>
<path d="M204.643 111.239L164.149 103.381C163.646 103.284 163.203 102.991 162.917 102.567C162.631 102.143 162.525 101.623 162.623 101.122C162.72 100.62 163.014 100.177 163.438 99.8913C163.862 99.6054 164.383 99.4995 164.886 99.597L205.381 107.455C205.884 107.552 206.327 107.845 206.613 108.269C206.899 108.693 207.005 109.213 206.907 109.715C206.81 110.217 206.516 110.659 206.092 110.945C205.668 111.231 205.147 111.337 204.644 111.239L204.643 111.239Z" fill="#CCCCCC"/>
<path d="M211.216 119.139L162.906 109.765C162.403 109.668 161.96 109.375 161.674 108.951C161.388 108.527 161.282 108.007 161.38 107.505C161.478 107.003 161.771 106.561 162.195 106.275C162.62 105.989 163.14 105.883 163.643 105.981L211.952 115.355C212.455 115.452 212.898 115.745 213.184 116.169C213.47 116.593 213.576 117.113 213.478 117.615C213.381 118.117 213.087 118.559 212.663 118.845C212.239 119.131 211.718 119.237 211.216 119.139Z" fill="#CCCCCC"/>
<path d="M156.87 50.8766C160.568 51.594 164.148 49.1822 164.868 45.4896C165.587 41.797 163.172 38.222 159.474 37.5046C155.776 36.7872 152.196 39.1991 151.476 42.8917C150.757 46.5842 153.172 50.1592 156.87 50.8766Z" fill="#B4B4B4"/>
<path d="M157.012 46.6122C156.862 46.5833 156.724 46.5062 156.621 46.3926L156.615 46.3855L155.275 44.878C155.153 44.7364 155.092 44.5523 155.104 44.3656C155.117 44.179 155.202 44.0048 155.343 43.8808C155.483 43.7567 155.667 43.6929 155.854 43.703C156.041 43.7131 156.216 43.7964 156.342 43.9348L157.21 44.9131L160.229 42.2427C160.299 42.1807 160.381 42.1332 160.469 42.1028C160.557 42.0723 160.651 42.0596 160.744 42.0652C160.838 42.0709 160.929 42.0949 161.013 42.1358C161.097 42.1767 161.172 42.2338 161.234 42.3038C161.359 42.445 161.424 42.6296 161.412 42.8178C161.401 43.0061 161.315 43.1821 161.174 43.3072L157.622 46.4469C157.54 46.5191 157.442 46.5716 157.336 46.6001C157.231 46.6286 157.12 46.6324 157.012 46.6112L157.012 46.6122Z" fill="white"/>
<path d="M159.986 74.2309C159.815 75.1091 159.473 75.9451 158.979 76.6913C158.485 77.4374 157.848 78.0791 157.105 78.5796C156.363 79.08 155.529 79.4296 154.651 79.6082C153.773 79.7868 152.869 79.791 151.989 79.6205C151.932 79.6105 151.874 79.597 151.818 79.5802C150.508 79.291 149.313 78.6226 148.382 77.6584C147.451 76.6943 146.825 75.4773 146.583 74.1597C146.341 72.8421 146.494 71.4824 147.022 70.2509C147.55 69.0193 148.43 67.9705 149.552 67.2358C150.674 66.501 151.988 66.1129 153.329 66.1201C154.671 66.1272 155.98 66.5292 157.094 67.2759C158.208 68.0225 159.076 69.0806 159.591 70.3177C160.105 71.5548 160.243 72.916 159.986 74.2309Z" fill="#B4B4B4"/>
<path d="M145.73 108.094C149.428 108.811 153.009 106.399 153.728 102.707C154.447 99.0142 152.032 95.4392 148.335 94.7217C144.637 94.0043 141.056 96.4162 140.337 100.109C139.618 103.801 142.032 107.376 145.73 108.094Z" fill="#B4B4B4"/>
<path d="M247.847 40.36L234.083 37.6896C233.078 37.4947 232.192 36.9091 231.619 36.0617C231.047 35.2144 230.835 34.1746 231.031 33.1712L233.008 23.0196C233.016 22.9752 233.037 22.9341 233.068 22.9011C233.099 22.868 233.139 22.8444 233.183 22.8328C233.227 22.8212 233.273 22.8222 233.316 22.8357C233.359 22.8491 233.398 22.8745 233.428 22.9089L248.076 39.9658C248.109 40.0037 248.129 40.0509 248.133 40.1007C248.138 40.1504 248.127 40.2004 248.102 40.2436C248.076 40.2868 248.038 40.3211 247.993 40.3418C247.947 40.3625 247.896 40.3685 247.847 40.359L247.847 40.36Z" fill="#CCCCCC"/>
<path d="M166.254 141.851C165.83 142.545 165.148 143.042 164.356 143.233C163.565 143.425 162.731 143.294 162.036 142.871L126.227 121.064C125.532 120.641 125.034 119.959 124.842 119.169C124.65 118.38 124.781 117.546 125.205 116.852C125.628 116.159 126.311 115.661 127.102 115.47C127.893 115.279 128.728 115.409 129.423 115.832L165.232 137.639C165.927 138.062 166.425 138.744 166.616 139.534C166.808 140.324 166.678 141.157 166.254 141.851Z" fill="#3F3D56"/>
<path d="M130.445 120.045C127.916 124.184 124.215 127.482 119.809 129.521C115.403 131.56 110.491 132.249 105.693 131.5C100.895 130.752 96.4274 128.6 92.8545 125.316C89.2817 122.033 86.7643 117.765 85.6208 113.053C84.4772 108.341 84.7588 103.396 86.43 98.8442C88.1012 94.292 91.0869 90.3368 95.0095 87.4788C98.9321 84.6207 103.615 82.9882 108.467 82.7876C113.319 82.587 118.122 83.8274 122.268 86.3518C125.021 88.0281 127.416 90.2293 129.316 92.8297C131.217 95.4302 132.586 98.3789 133.346 101.508C134.105 104.636 134.24 107.884 133.742 111.064C133.244 114.245 132.124 117.297 130.445 120.045ZM93.7627 97.7045C91.8662 100.809 90.9344 104.405 91.085 108.038C91.2357 111.672 92.462 115.179 94.609 118.116C96.756 121.053 99.7271 123.289 103.147 124.54C106.566 125.792 110.281 126.003 113.821 125.146C117.36 124.29 120.566 122.405 123.033 119.729C125.499 117.054 127.116 113.708 127.678 110.116C128.24 106.523 127.723 102.845 126.191 99.5455C124.659 96.2464 122.182 93.4749 119.073 91.5815C114.903 89.0425 109.894 88.2612 105.147 89.4095C100.401 90.5578 96.3057 93.5416 93.7627 97.7045Z" fill="#3F3D56"/>
<path d="M102.991 125.058C112.967 128.488 123.839 123.194 127.274 113.233C130.709 103.273 125.407 92.4183 115.431 88.9887C105.454 85.559 94.5822 90.8532 91.1471 100.814C87.712 110.774 93.0147 121.629 102.991 125.058Z" fill="#B4B4B4"/>
</g>
<defs>
<clipPath id="clip0_1_3">
<rect width="251" height="153" fill="white"/>
</clipPath>
</defs>
</svg>
